<svg xmlns="http://www.w3.org/2000/svg" version="1.1" xmlns:xlink="http://www.w3.org/1999/xlink" xmlns:svgjs="http://svgjs.dev/svgjs" width="400" height="400">
	<svg width="400" height="400" viewBox="0 0 400 400" fill="none" xmlns="http://www.w3.org/2000/svg">
		<path fill="#000" d="M 393.5808 178.389 L 380.598 155.3994 L 395.7924 129.6792 C 399.5332 123.3448 399.5468 115.3038 395.8334 108.6826 L 372.3386 66.785 C 368.1338 59.2902 360.8574 54.9624 352.3522 54.8942 L 322.4274 54.6622 L 316.6116 44.628 C 307.7378 29.2832 291.6286 20.4778 272.4478 20.4778 H 126.3584 C 107.1504 20.4778 90.891 29.529 81.7306 45.3106 L 76.297 54.6758 L 46.4814 55.017 C 39.123 55.099 32.0786 59.2218 28.5292 65.5154 L 4.147 108.669 C 0.4882 115.1536 0.5018 123.3994 4.188 129.6518 L 18.7544 154.3344 L 6.263 176.0956 C -2.2968 191.0034 -2.0646 209.1058 6.85 224.5324 L 82.3312 355.0308 C 90.7818 369.6518 106.7818 378.7304 124.0786 378.7304 L 275.3692 378.6758 C 292.6252 378.6758 308.6662 369.4608 317.226 354.6622 L 392.6936 224.1912 C 401.2942 209.3242 401.6218 192.628 393.5808 178.389 Z M 383.0962 218.6484 L 307.6286 349.1194 C 301.144 360.3412 289.0622 367.5904 275.3556 367.604 L 124.0786 367.6588 H 124.065 C 110.8636 367.6588 98.4814 360.8328 91.9148 349.488 L 16.4472 218.9898 C 9.6214 207.1946 9.2118 193.215 15.8738 181.6246 L 30.5632 156.041 C 31.1912 154.9352 31.1912 153.5836 30.536 152.4914 L 13.7442 124.0274 C 11.9968 121.0784 12.106 117.1468 13.8124 114.1296 L 38.1946 70.9624 C 39.8466 68.041 43.3142 66.1434 46.6178 66.1024 L 80.734 65.7064 C 81.9762 65.6928 83.123 65.0238 83.751 63.9454 L 91.3414 50.8668 C 98.6452 38.2798 111.437 31.5632 126.3858 31.5632 H 272.475 C 287.1098 31.5632 299.9426 37.8976 307.069 50.198 L 315.0416 63.959 C 315.6696 65.0376 316.8164 65.7064 318.0724 65.7202 L 352.3112 65.9796 C 356.9666 66.0204 360.516 68.273 362.714 72.2048 L 386.2088 114.1024 C 387.929 117.174 388.1064 120.983 386.2908 124.041 L 368.871 153.529 C 368.2294 154.6212 368.2156 155.959 368.83 157.0648 L 383.9564 183.8498 C 390.1816 194.8806 389.5536 207.5494 383.1236 218.6484 H 383.0962 Z"></path>
		<path fill="#000" d="M 147.1494 190.3072 C 146.385 189.8566 145.484 189.4608 144.5146 189.1332 C 143.2314 188.7098 141.8252 188.4232 140.4874 188.314 C 140.146 188.2866 139.8184 188.273 139.4908 188.273 C 137.8526 188.2594 136.3788 188.5324 135.3686 189.174 C 132.4334 191.0716 130.6178 199.4948 132.5018 202.5666 C 133.553 204.273 136.856 205.7202 140.0506 206.239 C 140.4054 206.2936 140.7604 206.3482 141.1154 206.3754 C 141.4704 206.4028 141.8116 206.43 142.153 206.4436 C 143.5044 206.471 144.7332 206.3072 145.6342 205.8566 C 145.8526 205.7474 146.0574 205.611 146.2484 205.4744 C 146.8764 204.9692 147.4362 204.273 147.914 203.454 C 148.2416 202.9078 148.5284 202.3072 148.774 201.6792 C 149.2792 200.4096 149.6342 199.017 149.8116 197.6656 C 149.9482 196.6552 149.9754 195.6588 149.9072 194.7576 C 149.798 193.5564 149.5112 192.5324 148.9788 191.8498 C 148.5556 191.2902 147.9276 190.7714 147.1632 190.3208 L 147.1494 190.3072 Z"></path>
		<path fill="#000" d="M 263.069 189.6382 C 260.0382 187.686 252.3796 189.3378 250.2362 192.1502 C 248.2566 194.744 249.6628 202.4846 252.8028 205.0238 C 255.5332 207.2218 263.9972 205.1604 265.772 202.2798 C 267.5604 199.3856 265.8402 191.4266 263.069 189.6382 Z"></path>
		<path fill="#000" d="M 197.6764 199.604 C 192.4478 199.604 188.3658 200.9966 184.9666 203.2628 C 182.4 204.7508 180.2156 206.6484 178.8232 208.901 C 178.8232 208.901 178.8232 208.942 178.7822 208.9966 C 174.3454 214.4436 171.0416 221.4608 166.8506 227.7952 C 165.226 230.2526 163.6832 232.6962 162.2362 235.14 C 161.3078 236.7098 160.0928 238.116 158.6048 239.1536 C 154.8368 241.7884 150.632 243.2902 146.045 242.7168 L 116.8156 240.355 C 107.6144 239.604 100.6656 234.0614 96.3652 226.0478 L 83.7372 202.5392 C 79.6826 194.9762 78.413 185.925 82.9318 178.2936 L 95.9556 156.3412 C 100.4744 148.7098 108.6792 144.1092 117.4436 144.86 L 144.202 147.1536 C 144.8982 147.2082 145.5808 147.3038 146.2362 147.4266 C 148.8164 147.8908 150.9598 145.4744 150.0724 142.9624 L 149.6902 141.8566 C 146.5092 132.7508 147.1236 123.4812 152.475 115.5768 L 193.3216 55.454 C 194.8506 53.2014 193.2668 50.1024 190.5774 50.116 L 127.1774 50.198 C 117.1844 50.198 108.9112 55.4948 104.1058 64.355 L 33.0342 190.2936 C 29.2116 197.0648 29.8806 205.6518 33.6076 212.232 L 104.8566 338.1296 C 109.5666 346.4574 117.8532 351.1262 127.2048 351.14 L 191.4512 351.1672 C 193.8676 351.1672 195.342 348.5324 194.0996 346.471 L 176.1748 316.901 C 175.615 315.9864 176.516 314.8532 177.5262 315.2082 C 186.9188 318.553 197.9086 319.454 209.3488 317.5564 C 230.359 314.075 246.5502 296.6552 246.482 275.3584 C 246.441 259.7816 239.2464 244.0682 228.4888 227.8088 C 220.0928 215.1126 215.2192 199.6178 197.6764 199.6178 V 199.604 Z M 218.045 245.3378 C 215.1782 253.9796 206.6866 263.1536 197.7038 263.1672 C 188.557 263.1672 180.4204 253.9386 177.3488 245.6382 C 176.3386 242.9216 179.4512 240.1502 181.5536 239.058 C 199.5194 229.6928 220.0928 239.2082 218.045 245.3378 Z"></path>
	</svg>
	<style>
		@media (prefers-color-scheme: light) { :root { filter: none; } }
		@media (prefers-color-scheme: dark) { :root { filter: invert(100%); } }
	</style>
</svg>
